<svg width="40" height="40" viewBox="0 0 40 40" fill="none" xmlns="http://www.w3.org/2000/svg">
  <rect width="40" height="40" rx="8" fill="white"/>
  <path d="M15 12C13.8954 12 13 12.8954 13 14V26C13 27.1046 13.8954 28 15 28H25C26.1046 28 27 27.1046 27 26V14C27 12.8954 26.1046 12 25 12H15ZM23 16C23 17.1046 22.1046 18 21 18H19C17.8954 18 17 17.1046 17 16V16C17 14.8954 17.8954 14 19 14H21C22.1046 14 23 14.8954 23 16V16ZM17 22C17 20.8954 17.8954 20 19 20H21C22.1046 20 23 20.8954 23 22V22C23 23.1046 22.1046 24 21 24H19C17.8954 24 17 23.1046 17 22V22Z" fill="#8B5CF6"/>
</svg>